<svg id="Capa_1" enable-background="new 0 0 512 512" height="512" viewBox="0 0 512 512" width="512" xmlns="http://www.w3.org/2000/svg"><g><path d="m256 .042c-.154 0-.289-.042-.443-.042-60.727.255-104.779 49.77-104.601 106.322.073 21.313 6.328 41.602 18.105 58.652 10.123 14.746 41.939 40.602 41.939 87.789h45 45c0-46.802 31.873-73.271 41.938-87.773 11.821-17.139 18.091-37.529 18.105-58.989.03-56.484-44.248-105.968-105.043-105.959z" fill="#fed843"/><path d="m342.938 164.989c11.821-17.139 18.091-37.529 18.105-58.989.03-56.483-44.248-105.967-105.043-105.958v252.721h45c0-46.802 31.873-73.272 41.938-87.774z" fill="#fabe2c"/><g><path d="m45 361c-8.291 0-15-6.709-15-15 0-41.353 33.647-75 75-75h39.027c8.291 0 15 6.709 15 15s-6.709 15-15 15h-39.027c-24.814 0-45 20.186-45 45 0 8.291-6.709 15-15 15z" fill="#47568c"/></g><g><path d="m467 361c-8.291 0-15-6.709-15-15 0-24.814-21.186-45-46-45h-38.027c-8.291 0-15-6.709-15-15s6.709-15 15-15h38.027c41.353 0 76 33.647 76 75 0 8.291-6.709 15-15 15z" fill="#29376d"/></g><path d="m316 241h-60-60c-41.353 0-75 33.647-75 75v121c0 8.291 6.709 15 15 15h120 120c8.291 0 15-6.709 15-15v-121c0-41.353-33.647-75-75-75z" fill="#fabe2c"/><path d="m391 437v-121c0-41.353-33.647-75-75-75h-60v211h120c8.291 0 15-6.709 15-15z" fill="#ff9100"/><g><g><path d="m106 121h-30c-8.291 0-15-6.709-15-15s6.709-15 15-15h30c8.291 0 15 6.709 15 15s-6.709 15-15 15z" fill="#fed843"/></g></g><g><g><path d="m87.118 203.5c-4.146-7.178-1.685-16.348 5.493-20.493l25.986-15c7.134-4.131 16.318-1.67 20.493 5.493 4.146 7.178 1.685 16.348-5.493 20.493l-25.986 15c-7.098 4.1-16.301 1.744-20.493-5.493z" fill="#fed843"/></g></g><g><g><path d="m118.598 42.993-25.986-15c-7.178-4.146-9.639-13.315-5.493-20.493 4.146-7.163 13.33-9.624 20.493-5.493l25.986 15c7.178 4.146 9.639 13.315 5.493 20.493-4.186 7.226-13.385 9.599-20.493 5.493z" fill="#fed843"/></g></g><g><g><path d="m436 121h-30c-8.291 0-15-6.709-15-15s6.709-15 15-15h30c8.291 0 15 6.709 15 15s-6.709 15-15 15z" fill="#fabe2c"/></g></g><g><g><path d="m372.909 37.5c-4.146-7.178-1.685-16.348 5.493-20.493l25.986-15c7.119-4.131 16.333-1.67 20.493 5.493 4.146 7.178 1.685 16.348-5.493 20.493l-25.986 15c-7.098 4.1-16.301 1.744-20.493-5.493z" fill="#fabe2c"/></g></g><g><g><path d="m404.389 208.993-25.986-15c-7.178-4.146-9.639-13.315-5.493-20.493 4.131-7.163 13.301-9.624 20.493-5.493l25.986 15c7.178 4.146 9.639 13.315 5.493 20.493-4.186 7.226-13.385 9.599-20.493 5.493z" fill="#fabe2c"/></g></g><g><path d="m316 361c-8.291 0-15-6.709-15-15v-30c0-8.291 6.709-15 15-15s15 6.709 15 15v30c0 8.291-6.709 15-15 15z" fill="#29376d"/></g><g><path d="m196 361c-8.291 0-15-6.709-15-15v-30c0-8.291 6.709-15 15-15s15 6.709 15 15v30c0 8.291-6.709 15-15 15z" fill="#47568c"/></g><g><path d="m467 421c-8.291 0-15-6.709-15-15s6.709-15 15-15c8.276 0 15-6.724 15-15s-6.724-15-15-15-15 6.724-15 15c0 8.291-6.709 15-15 15s-15-6.709-15-15c0-24.814 20.186-45 45-45s45 20.186 45 45-20.186 45-45 45z" fill="#ff9100"/></g><g><path d="m45 421c-24.814 0-45-20.186-45-45s20.186-45 45-45 45 20.186 45 45c0 8.291-6.709 15-15 15s-15-6.709-15-15c0-8.276-6.724-15-15-15s-15 6.724-15 15 6.724 15 15 15c8.291 0 15 6.709 15 15s-6.709 15-15 15z" fill="#fabe2c"/></g><path d="m256 301c-8.291 0-15 6.709-15 15v30c0 8.291 6.709 15 15 15s15-6.709 15-15v-30c0-8.291-6.709-15-15-15z" fill="#47568c"/><path d="m271 346v-30c0-8.291-6.709-15-15-15v60c8.291 0 15-6.709 15-15z" fill="#29376d"/><path d="m286 91c-8.291 0-15 6.709-15 15 0 8.276-6.724 15-15 15s-15-6.724-15-15c0-8.291-6.709-15-15-15s-15 6.709-15 15c0 24.814 20.186 45 45 45s45-20.186 45-45c0-8.291-6.709-15-15-15z" fill="#47568c"/><path d="m301 106c0-8.291-6.709-15-15-15s-15 6.709-15 15c0 8.276-6.724 15-15 15v30c24.814 0 45-20.186 45-45z" fill="#29376d"/><path d="m256 422h-120v90h120 120v-90z" fill="#47568c"/><path d="m256 422h120v90h-120z" fill="#29376d"/><path d="m256 452h-120v30h120 120v-30z" fill="#d5e8fe"/><path d="m256 452h120v30h-120z" fill="#b5dbff"/><circle cx="256" cy="467" fill="#47568c" r="45"/><path d="m301 467c0-24.814-20.186-45-45-45v90c24.814 0 45-20.186 45-45z" fill="#29376d"/><g><g><path d="m376 512c-24.814 0-45-20.186-45-45s20.186-45 45-45 45 20.186 45 45-20.186 45-45 45z" fill="#29376d"/></g></g><g><g><path d="m136 512c-24.814 0-45-20.186-45-45s20.186-45 45-45 45 20.186 45 45-20.186 45-45 45z" fill="#47568c"/></g></g><circle cx="376" cy="467" fill="#d5e8fe" r="15"/><circle cx="136" cy="467" fill="#edf5ff" r="15"/><circle cx="256" cy="467" fill="#edf5ff" r="15"/><path d="m271 467c0-8.276-6.724-15-15-15v30c8.276 0 15-6.724 15-15z" fill="#d5e8fe"/></g></svg>